<svg width="121" height="120" viewBox="0 0 121 120" fill="none" xmlns="http://www.w3.org/2000/svg">
<g clip-path="url(#clip0_1_509)">
<rect x="0.5" width="120" height="120" rx="60" fill="white"/>
<circle cx="60.5" cy="60" r="60" fill="#DEF4FF"/>
<path d="M86.0957 46.3549C86.0957 46.3549 90.3437 45.8389 90.7277 49.8829C91.1117 53.9269 89.7557 57.0349 87.2358 58.3789C87.2358 58.3789 86.6957 58.6429 85.4597 58.8589L86.0957 46.3669V46.3549Z" fill="#FFB69F"/>
<path d="M38.0358 46.3549C38.0358 46.3549 33.7878 45.8389 33.4038 49.8829C33.0198 53.9269 34.3758 57.0349 36.8958 58.3789C36.8958 58.3789 37.4358 58.6429 38.6718 58.8589L38.0358 46.3669V46.3549Z" fill="#FFB69F"/>
<path d="M4.09999 125.677C4.09999 125.677 4.09999 108.709 14.036 105.361C23.972 102.013 46.424 89.1609 46.424 89.1609H61.616V125.677H4.09999Z" fill="#F49037"/>
<path d="M118.195 125.677C118.195 125.677 118.195 108.709 108.259 105.361C98.3233 102.013 76.1113 89.1609 76.1113 89.1609H60.6793V125.677H118.195Z" fill="#F49037"/>
<path d="M50.204 77.4234L48.8 89.1594H73.496L71.96 77.4234H50.204Z" fill="#FFB69F"/>
<path d="M61.148 96.1811C67.9676 96.1811 73.496 93.7796 73.496 90.8171C73.496 87.8547 67.9676 85.4531 61.148 85.4531C54.3284 85.4531 48.8 87.8547 48.8 90.8171C48.8 93.7796 54.3284 96.1811 61.148 96.1811Z" fill="#FFB69F"/>
<path d="M49.2676 85.2712C49.2676 85.2712 66.1276 86.8193 72.0676 79.4273V70.9312L50.6956 72.9832L49.2676 85.2712Z" fill="#FF9988"/>
<path d="M62.1561 80.8319C75.749 80.8319 86.7681 66.745 86.7681 49.3679C86.7681 31.9908 75.749 17.9039 62.1561 17.9039C48.5633 17.9039 37.5441 31.9908 37.5441 49.3679C37.5441 66.745 48.5633 80.8319 62.1561 80.8319Z" fill="#FFB69F"/>
<path d="M83.6481 24.2409C83.6481 24.2409 83.6721 24.1809 83.6481 24.1449C82.8321 22.1889 81.8361 12.3609 65.8281 10.8729C61.7241 10.4889 55.8561 11.1729 52.1361 12.9489C47.0361 15.3729 41.3361 16.7649 36.2961 16.7529C36.0801 16.7529 35.9961 17.0409 36.1881 17.1489L40.1241 20.2809C40.2801 20.3649 40.2681 20.5929 40.1001 20.6649L35.1561 22.1649C34.9761 22.2369 34.9761 22.5009 35.1561 22.5609C35.9601 22.8249 38.0001 23.7249 39.8481 24.3609C36.8241 29.7129 37.5201 37.4049 37.5201 46.6449C37.5201 46.6449 37.4241 56.2209 40.6521 67.2009C44.1801 79.2009 51.9201 84.3489 62.8281 84.3849C74.4441 84.4329 80.5041 74.4729 82.1241 70.9329C84.5961 65.5089 86.7201 55.4289 86.7321 49.3689C86.7321 49.3689 91.1961 34.0569 83.6241 24.2409H83.6481ZM73.7841 68.7009C71.3841 69.9249 72.5961 63.5529 67.8201 63.2889C66.2241 63.1929 60.8001 62.8209 56.2401 63.2049C52.7721 63.5049 51.9321 66.6249 51.7761 68.2089C51.7041 68.8929 51.4641 69.2049 50.8161 68.9649C49.3761 68.4369 46.3161 66.7329 44.8761 65.1489C43.3881 63.5169 40.7001 59.1129 40.4481 49.8129L40.7121 36.5289C40.7121 36.5289 46.0521 32.0529 46.9761 28.8729C46.9761 28.8729 70.8321 32.6889 77.7441 28.8729C77.7441 28.8729 80.6361 34.4049 83.7921 36.0729C84.7641 36.5769 84.5961 42.8889 84.5121 47.2449C84.4281 47.8329 84.3561 48.5049 84.3201 49.2969C83.6841 61.7409 76.1601 67.4889 73.7721 68.7129L73.7841 68.7009Z" fill="#B54D4D"/>
<path d="M73.7844 51.8869C74.5863 51.8869 75.2364 50.7586 75.2364 49.3669C75.2364 47.9751 74.5863 46.8469 73.7844 46.8469C72.9825 46.8469 72.3324 47.9751 72.3324 49.3669C72.3324 50.7586 72.9825 51.8869 73.7844 51.8869Z" fill="#441D39"/>
<path d="M52.0039 51.3713C52.8059 51.3713 53.4559 50.243 53.4559 48.8512C53.4559 47.4595 52.8059 46.3312 52.0039 46.3312C51.202 46.3312 50.5519 47.4595 50.5519 48.8512C50.5519 50.243 51.202 51.3713 52.0039 51.3713Z" fill="#441D39"/>
<path d="M63.8482 60.6961H61.5562C60.5362 60.6961 59.6362 60.3001 59.1562 59.6401C58.8082 59.1721 58.7122 58.6201 58.8802 58.0801C59.3962 56.4241 60.0682 50.2441 60.0682 50.1841C60.1042 49.8481 60.3922 49.6201 60.7282 49.6561C61.0522 49.6921 61.2922 49.9921 61.2562 50.3161C61.2322 50.5801 60.5602 56.6641 60.0202 58.4401C59.9722 58.6201 59.9962 58.7761 60.1162 58.9441C60.3682 59.2801 60.9322 59.5081 61.5562 59.5081H63.8482C64.1842 59.5081 64.4482 59.7721 64.4482 60.1081C64.4482 60.4441 64.1842 60.7081 63.8482 60.7081V60.6961Z" fill="#FF9988"/>
<path d="M75.0556 55.8356C77.3685 55.8356 79.2436 55.4058 79.2436 54.8756C79.2436 54.3454 77.3685 53.9156 75.0556 53.9156C72.7426 53.9156 70.8676 54.3454 70.8676 54.8756C70.8676 55.4058 72.7426 55.8356 75.0556 55.8356Z" fill="#FF9988"/>
<path d="M50.6114 55.8356C52.9244 55.8356 54.7994 55.4058 54.7994 54.8756C54.7994 54.3454 52.9244 53.9156 50.6114 53.9156C48.2985 53.9156 46.4234 54.3454 46.4234 54.8756C46.4234 55.4058 48.2985 55.8356 50.6114 55.8356Z" fill="#FF9988"/>
<path d="M78.8714 43.511C74.8754 42.335 71.8154 43.079 69.9554 43.319C69.1634 43.415 68.9954 42.443 68.9954 42.443C68.8394 41.783 69.7274 41.327 70.3514 41.207C72.4514 40.823 75.1394 40.631 79.1234 42.011C79.8914 42.275 79.9394 42.923 79.9394 42.923C79.8554 43.643 79.3994 43.655 78.8714 43.499V43.511Z" fill="#B54D4D"/>
<path d="M46.6995 43.5846C50.6715 42.3366 53.7435 43.0326 55.6035 43.2366C56.3955 43.3206 56.5515 42.3486 56.5515 42.3486C56.6955 41.6886 55.7955 41.2446 55.1715 41.1366C53.0595 40.7886 50.3715 40.6326 46.4235 42.0846C45.6555 42.3606 45.6195 43.0086 45.6195 43.0086C45.7155 43.7286 46.1715 43.7286 46.6875 43.5726L46.6995 43.5846Z" fill="#B54D4D"/>
<path d="M62.0241 70.441C59.1921 70.441 56.9361 69.841 56.7921 69.805C56.4681 69.721 56.2881 69.385 56.3721 69.073C56.4561 68.761 56.7921 68.569 57.1041 68.653C57.1641 68.665 62.6841 70.129 67.1361 68.389C67.4481 68.269 67.7961 68.425 67.9161 68.725C68.0361 69.037 67.8801 69.385 67.5801 69.505C65.7441 70.225 63.7761 70.453 62.0361 70.453L62.0241 70.441Z" fill="#9B3D3D"/>
<path d="M49.328 85.3312L58.88 92.1472L54.26 103.211L41.9 91.7032L49.328 85.3312Z" fill="#FFA242"/>
<path d="M58.88 92.1472L59.456 96.2392L57.284 95.9632L58.88 92.1472Z" fill="#F49037"/>
<path d="M64.3283 91.9317L63.4883 96.2397L65.8403 95.8437L64.3283 91.9317Z" fill="#F49037"/>
<path d="M64.3283 91.9317L73.0763 85.5117L81.2723 92.0877L69.0803 104.268L64.3283 91.9317Z" fill="#FFA242"/>
<path d="M63.4758 97.8117H59.4558V125.664H63.4758V97.8117Z" fill="white"/>
<path d="M59.3718 95.6651L59.4558 98.1131C59.4558 98.1131 61.3278 98.9291 63.4758 98.1131L63.5358 95.8931L59.3598 95.6531L59.3718 95.6651Z" fill="#FFB69F"/>
<path d="M63.4758 103.692H59.4558V104.892H63.4758V103.692Z" fill="#D6D6D6"/>
<path d="M63.4758 109.104H59.4558V110.304H63.4758V109.104Z" fill="#D6D6D6"/>
<path d="M63.4758 114.516H59.4558V115.716H63.4758V114.516Z" fill="#D6D6D6"/>
<path d="M63.4758 119.927H59.4558V121.127H63.4758V119.927Z" fill="#D6D6D6"/>
<path d="M66.8962 110.269C67.4794 110.269 67.9522 109.796 67.9522 109.213C67.9522 108.63 67.4794 108.157 66.8962 108.157C66.313 108.157 65.8402 108.63 65.8402 109.213C65.8402 109.796 66.313 110.269 66.8962 110.269Z" fill="#FFA242"/>
<path d="M66.8962 122.051C67.4794 122.051 67.9522 121.578 67.9522 120.995C67.9522 120.412 67.4794 119.939 66.8962 119.939C66.313 119.939 65.8402 120.412 65.8402 120.995C65.8402 121.578 66.313 122.051 66.8962 122.051Z" fill="#FFA242"/>
</g>
<defs>
<clipPath id="clip0_1_509">
<rect x="0.5" width="120" height="120" rx="60" fill="white"/>
</clipPath>
</defs>
</svg>
