<svg width="22" height="22" viewBox="0 0 22 22" fill="none" xmlns="http://www.w3.org/2000/svg">
<path d="M11 15.9042C11.8252 15.9042 12.4942 15.2352 12.4942 14.41C12.4942 13.5848 11.8252 12.9158 11 12.9158C10.1748 12.9158 9.50584 13.5848 9.50584 14.41C9.50584 15.2352 10.1748 15.9042 11 15.9042Z" fill="#64748B"/>
<path d="M16.7567 8.73581V7.58998C16.7567 5.11498 16.1608 1.83331 11 1.83331C5.83917 1.83331 5.24333 5.11498 5.24333 7.58998V8.73581C2.67667 9.05665 1.83333 10.3583 1.83333 13.5575V15.2625C1.83333 19.0208 2.97917 20.1666 6.7375 20.1666H15.2625C19.0208 20.1666 20.1667 19.0208 20.1667 15.2625V13.5575C20.1667 10.3583 19.3233 9.05665 16.7567 8.73581ZM11 17.1783C9.46917 17.1783 8.23166 15.9316 8.23166 14.41C8.23166 12.8791 9.47833 11.6416 11 11.6416C12.5217 11.6416 13.7683 12.8883 13.7683 14.41C13.7683 15.9408 12.5308 17.1783 11 17.1783ZM6.7375 8.65331C6.66417 8.65331 6.6 8.65331 6.52667 8.65331V7.58998C6.52667 4.90415 7.2875 3.11665 11 3.11665C14.7125 3.11665 15.4733 4.90415 15.4733 7.58998V8.66248C15.4 8.66248 15.3358 8.66248 15.2625 8.66248H6.7375V8.65331Z" fill="#64748B"/>
</svg>
