<svg width="44" height="44" viewBox="0 0 44 44" fill="none" xmlns="http://www.w3.org/2000/svg">
<path d="M29.7733 3.66663H14.2267C9.16667 3.66663 7.33333 5.49996 7.33333 10.6516V33.3483C7.33333 38.5 9.16667 40.3333 14.2267 40.3333H29.755C34.8333 40.3333 36.6667 38.5 36.6667 33.3483V10.6516C36.6667 5.49996 34.8333 3.66663 29.7733 3.66663ZM22 35.3833C20.24 35.3833 18.7917 33.935 18.7917 32.175C18.7917 30.415 20.24 28.9666 22 28.9666C23.76 28.9666 25.2083 30.415 25.2083 32.175C25.2083 33.935 23.76 35.3833 22 35.3833ZM25.6667 11.4583H18.3333C17.5817 11.4583 16.9583 10.835 16.9583 10.0833C16.9583 9.33163 17.5817 8.70829 18.3333 8.70829H25.6667C26.4183 8.70829 27.0417 9.33163 27.0417 10.0833C27.0417 10.835 26.4183 11.4583 25.6667 11.4583Z" fill="#64748B"/>
</svg>
