<svg width="44" height="44" viewBox="0 0 44 44" fill="none" xmlns="http://www.w3.org/2000/svg">
<path d="M32.1933 3.66663H11.7517C7.29667 3.66663 3.66667 7.29663 3.66667 11.7516V23.6683V24.035C3.66667 28.5083 7.29667 32.12 11.7517 32.12H18.7917C19.8 32.12 20.625 32.945 20.625 33.9533V35.7316C20.625 36.74 19.8 37.565 18.7917 37.565H14.355C13.6033 37.565 12.98 38.1883 12.98 38.94C12.98 39.6916 13.585 40.3333 14.355 40.3333H29.6633C30.415 40.3333 31.0383 39.71 31.0383 38.9583C31.0383 38.2066 30.415 37.5833 29.6633 37.5833H25.2267C24.2183 37.5833 23.3933 36.7583 23.3933 35.75V33.9716C23.3933 32.9633 24.2183 32.1383 25.2267 32.1383H32.2117C36.685 32.1383 40.2967 28.5083 40.2967 24.0533V23.6866V11.77C40.2783 7.29663 36.6483 3.66663 32.1933 3.66663Z" fill="#64748B"/>
</svg>
